<svg xmlns="http://www.w3.org/2000/svg" viewBox="0 0 256 256" width="256" height="256"><path d="M115.206 123.622c1 2.776 1.817 5.442 2.455 7.678h-27.1c1.6-4.483 3.2-9.5 4.692-14.976 1.707-5.331 3.3-10.663 4.9-15.785a130.553 130.553 0 0 0 3.624-13.757h.21c.749 2.556 1.5 5.331 2.346 8.316s1.817 6.19 2.876 9.5 2 6.51 3.095 9.814 1.943 6.325 2.902 9.21z"/><path d="M210.662 3.2H45.327A45.3 45.3 0 0 0 0 48.463v159A45.3 45.3 0 0 0 45.258 252.8h165.4A45.3 45.3 0 0 0 256 207.548V48.532A45.3 45.3 0 0 0 210.742 3.2zm-53.913 176.313h-22.294a1.608 1.608 0 0 1-1.708-1.179L124 152.945H84.325l-8.107 25.07a1.867 1.867 0 0 1-2 1.5H54.163c-1.168 0-1.487-.639-1.168-1.916L87.34 78.754c.319-1.068.639-2.237 1.068-3.524a37.143 37.143 0 0 0 .639-6.939 1.059 1.059 0 0 1 .859-1.169h27.626c.859 0 1.278.32 1.388.849L157.858 177.8c.329 1.188.009 1.718-1.059 1.718zm36.262-1.6c0 1.168-.43 1.707-1.388 1.707h-20.9a1.49 1.49 0 0 1-1.6-1.707V95.777c0-1.068.43-1.5 1.388-1.5h21.176c1 0 1.388.53 1.388 1.5zM190.774 81.6a12.537 12.537 0 0 1-9.7 3.734 13.2 13.2 0 0 1-9.5-3.734 13.869 13.869 0 0 1-3.624-9.814 12.553 12.553 0 0 1 3.85-9.496 13.664 13.664 0 0 1 9.5-3.734 12.774 12.774 0 0 1 9.7 3.734 14.667 14.667 0 0 1-.209 19.309z"/></svg>