<svg xmlns="http://www.w3.org/2000/svg" viewBox="0 0 256 256" width="256" height="256"><path d="M19.123 0A3.849 3.849 0 0 0 15.2 3.777a3.911 3.911 0 0 0 .021.484l19.836 222.494a6.667 6.667 0 0 0 4.506 5.406l84.172 23.367a18.24 18.24 0 0 0 8.243 0l84.428-23.408a6.658 6.658 0 0 0 4.506-5.406L240.778 4.261a3.851 3.851 0 0 0-3.419-4.239 3.7 3.7 0 0 0-.483-.022zm179.415 51.027c-.185 2.047-2.222 24.576-2.243 24.576H92.206a3.85 3.85 0 0 0-3.923 3.776 3.911 3.911 0 0 0 .021.484l1.833 20.48a4.783 4.783 0 0 0 4.66 4.26h95.149a3.43 3.43 0 0 1 3.481 3.379 3.264 3.264 0 0 1-.019.42c-.185 2.047-7.1 79.472-7.168 80.793s-2.049 2.909-4.332 3.532l-49.735 13.794-4.188 1.158s-1.915-.5-4.188-1.127L74.01 192.739a6.66 6.66 0 0 1-4.506-5.407L66.3 151.36a3.852 3.852 0 0 1 3.419-4.239 4.089 4.089 0 0 1 .483-.021h19.874a4.783 4.783 0 0 1 4.66 4.26L96 165.44a6.6 6.6 0 0 0 4.506 5.376l23.285 6.288 4.148 1.116 4.147-1.116 23.337-6.308a6.613 6.613 0 0 0 4.5-5.376l2.53-28.211a3.85 3.85 0 0 0-3.418-4.239 3.931 3.931 0 0 0-.473-.021H68.931a4.782 4.782 0 0 1-4.659-4.26s-6.738-75.54-6.933-77.63a3.666 3.666 0 0 1 3.52-3.806 3.319 3.319 0 0 1 .423.008h133.355a3.665 3.665 0 0 1 3.894 3.422c.007.1.009.209.007.312z"/></svg>