<svg xmlns="http://www.w3.org/2000/svg" viewBox="0 0 256 256" width="256" height="256"><path d="M0 0v256h256V0zm134.932 219.249a30.232 30.232 0 0 1-19.322 15.135 46.456 46.456 0 0 1-34.222-4.209 38.45 38.45 0 0 1-14.112-16.159q9.74-5.943 19.456-11.93a12.424 12.424 0 0 1 1.363 2.192 20.569 20.569 0 0 0 8.837 9.216 13.457 13.457 0 0 0 16.723-4.966 101.311 101.311 0 0 0 1.454-28.928c0-20.685.1-41.226.1-61.911h23.951c0 22.026.113 43.97 0 65.925a74.316 74.316 0 0 1-4.228 35.635zm99.328-6.769c-8.325 28.478-54.723 29.4-73.278 10.577a43.4 43.4 0 0 1-8.713-11.847c9.861-5.672 9.861-5.672 19.456-11.264a27.412 27.412 0 0 0 18.687 14.2c11.755 1.443 23.553-2.6 20.931-15.084-2.734-10.24-24.064-12.688-38.606-23.552a33.516 33.516 0 0 1-6.7-46.923q.3-.4.616-.8a34.175 34.175 0 0 1 18.155-10.711l7.547-1.024a36.1 36.1 0 0 1 30.178 10.946 47.672 47.672 0 0 1 6.144 8.274c-7.711 4.915-7.69 4.874-18.739 12.021a17.84 17.84 0 0 0-10.414-9.666 12.288 12.288 0 0 0-16.07 6.614 11.54 11.54 0 0 0-.14.349 13.225 13.225 0 0 0 .461 7.5c2.612 5.939 11.347 8.52 19.18 12.114 22.528 9.154 30.178 18.965 32.052 30.637a35.142 35.142 0 0 1-.738 17.645z"/></svg>