<svg xmlns="http://www.w3.org/2000/svg" viewBox="0 0 256 256" width="256" height="256"><path d="M210.74 3.2H45.34A45.3 45.3 0 0 0 0 48.46v159a45.3 45.3 0 0 0 45.26 45.34h165.4A45.3 45.3 0 0 0 256 207.54v-159A45.3 45.3 0 0 0 210.74 3.2zm-73.77 175.71c-.11.43-.54.11-1.18.21h-24.43c-1.71 0-2.88-.11-3.63-1.17-2.23-4.48-4.59-8.85-6.83-13.34s-4.69-8.85-7.24-13.43-5.12-9.18-7.68-13.87h-.21c-2.24 4.58-4.69 9.17-7.15 13.76s-4.9 9.17-7.26 13.65-4.9 9.07-7.36 13.44c-.42 1.07-1.27 1.17-2.45 1.17H38.09c-.43 0-.75.21-.75-.32a1.474 1.474 0 0 1 .21-1.17l33.17-54.4-32.31-54.72c-.32-.43-.43-.85-.21-1.07a1.236 1.236 0 0 1 1.07-.43h24.21a6.229 6.229 0 0 1 1.49.21 2.94 2.94 0 0 1 1.07 1c2 4.59 4.38 9.18 6.83 13.76s4.99 9.07 7.68 13.55 4.9 8.98 7.15 13.55h.21c2.23-4.7 4.58-9.28 6.93-13.76s4.8-8.99 7.25-13.44 4.81-9.06 7.15-13.44a1.832 1.832 0 0 1 .64-1.07 2.036 2.036 0 0 1 1.39-.21h22.5a1 1 0 0 1 1.18.75c.11.11-.11.53-.32.75l-32 52.8 34.14 55.99a1.88 1.88 0 0 1 .2 1.25zm80.74-4.19l-.01.03a81.452 81.452 0 0 1-17.38 5.12 94.167 94.167 0 0 1-16.42 1.5 53.131 53.131 0 0 1-22.96-4.8 37.2 37.2 0 0 1-16.11-14.51 46.138 46.138 0 0 1-5.87-24.32 43.74 43.74 0 0 1 5.87-22.5A44.342 44.342 0 0 1 161.8 98.7a54.7 54.7 0 0 1 26.96-6.19 21 21 0 0 1 2.24.11c.99.11 1.99.11 3.3.21V59.11c0-.75.32-1.18 1.07-1.18h21.65a1 1 0 0 1 1.07.75v101.75c0 1.92.11 4.06.21 6.4s.32 4.37.43 6.19a1.728 1.728 0 0 1-1.02 1.7zm-29.76-62.4l-.01.03a26.249 26.249 0 0 0-12.05 2.78 23.951 23.951 0 0 0-9.06 7.89 23.62 23.62 0 0 0-3.53 13.55 29.776 29.776 0 0 0 1.82 10.98 20.824 20.824 0 0 0 4.8 7.58 18.482 18.482 0 0 0 7.26 4.26 27.775 27.775 0 0 0 8.86 1.39c1.59 0 3.09-.11 4.48-.21a9.139 9.139 0 0 0 3.84-.53v-46.92a28.368 28.368 0 0 0-2.87-.53 25.041 25.041 0 0 0-3.54-.27z"/></svg>